<?xml version="1.0" standalone="no"?>
<!DOCTYPE svg PUBLIC "-//W3C//DTD SVG 20010904//EN"
 "http://www.w3.org/TR/2001/REC-SVG-20010904/DTD/svg10.dtd">
<svg version="1.0" xmlns="http://www.w3.org/2000/svg"
 width="822.000000pt" height="810.000000pt" viewBox="0 0 822.000000 810.000000"
 preserveAspectRatio="xMidYMid meet">

<g transform="translate(0.000000,810.000000) scale(0.100000,-0.100000)"
fill="#000000" stroke="none">
<path d="M3377 8006 c-50 -18 -85 -51 -108 -101 -15 -33 -19 -66 -19 -188 0
-157 9 -198 53 -245 51 -55 62 -57 350 -60 l268 -3 -3 -120 -3 -120 -330 1
c-181 0 -357 -4 -389 -10 -130 -21 -242 -107 -299 -227 l-32 -68 -3 -594 c-3
-668 -5 -651 71 -762 51 -77 126 -132 217 -160 63 -19 93 -19 1020 -17 l955 3
55 22 c128 53 225 164 254 292 24 103 24 1098 0 1201 -37 163 -167 283 -334
310 -36 5 -212 10 -392 10 l-328 0 0 120 0 120 243 0 c315 0 355 11 403 114
21 45 24 65 24 181 0 143 -10 194 -46 243 -54 71 -5 67 -839 69 -618 2 -757 0
-788 -11z m948 -1062 c84 -20 209 -83 280 -141 115 -93 203 -230 241 -373 22
-80 24 -261 5 -340 -95 -390 -484 -632 -868 -539 -131 32 -299 136 -378 236
-112 141 -155 254 -162 428 -6 138 14 242 67 351 86 175 268 327 450 374 114
30 250 31 365 4z"/>
<path d="M4013 6775 c-186 -50 -340 -206 -388 -392 -74 -282 106 -583 390
-658 74 -19 203 -19 275 0 266 71 442 335 402 603 -33 216 -193 392 -407 447
-73 19 -202 18 -272 0z m274 -187 c73 -27 154 -105 191 -185 24 -51 27 -70 27
-158 0 -81 -4 -109 -22 -147 -30 -66 -105 -143 -172 -175 -50 -25 -67 -28
-161 -28 -94 0 -110 3 -155 27 -66 34 -140 114 -172 186 -36 78 -37 191 -4
276 32 80 126 175 201 204 76 29 190 29 267 0z"/>
<path d="M4070 6429 c-64 -26 -110 -101 -110 -179 0 -88 57 -167 138 -190 49
-13 62 -13 113 5 166 59 183 276 28 355 -42 22 -126 26 -169 9z"/>
<path d="M2813 7566 c-254 -121 -491 -293 -719 -520 -232 -233 -389 -440 -533
-702 -397 -724 -456 -1587 -165 -2379 78 -212 319 -670 336 -639 3 5 11 38 18
72 7 35 24 79 37 98 l23 35 -65 117 c-168 306 -269 605 -322 949 -12 79 -17
178 -17 368 -1 225 2 280 22 405 80 498 273 930 595 1330 162 202 426 437 642
575 72 46 244 135 303 157 51 20 52 32 9 113 -21 39 -39 61 -52 62 -11 1 -61
-17 -112 -41z"/>
<path d="M5326 7545 c-20 -36 -36 -73 -36 -81 0 -8 15 -20 33 -26 72 -25 270
-131 374 -201 155 -104 247 -180 399 -331 156 -157 229 -246 349 -426 390
-585 539 -1276 424 -1968 -41 -246 -112 -464 -235 -721 l-74 -155 2 -165 3
-166 51 75 c219 323 379 743 446 1175 30 188 32 605 5 790 -127 855 -580 1585
-1272 2047 -123 82 -382 218 -415 218 -12 0 -30 -21 -54 -65z"/>
<path d="M4345 5094 c-52 -7 -683 -73 -1126 -117 -455 -46 -469 -49 -489 -103
-6 -14 -10 -86 -10 -160 0 -132 0 -134 23 -134 12 0 184 5 382 10 523 14 842
14 990 0 161 -14 197 -23 238 -60 l32 -28 3 -811 2 -812 -127 3 c-125 3 -126
3 -134 28 -4 14 -15 51 -25 84 -10 32 -28 72 -42 87 l-24 29 -187 0 c-179 0
-190 -1 -222 -23 -45 -30 -96 -117 -111 -188 l-11 -56 -816 -7 c-449 -4 -824
-4 -833 -1 -15 6 -18 20 -18 84 0 42 4 82 9 89 4 8 28 16 52 19 24 3 50 10 57
16 9 7 12 57 12 189 0 159 2 183 20 218 26 52 96 138 184 228 121 124 64 113
619 123 265 5 550 10 632 11 176 3 195 11 214 80 34 128 123 509 128 549 5 43
3 48 -21 65 -26 16 -65 17 -638 11 l-611 -7 -39 -25 c-29 -19 -47 -44 -75
-105 l-38 -80 -60 0 c-76 0 -105 -15 -121 -63 -7 -21 -22 -50 -34 -64 -18 -24
-20 -40 -20 -194 0 -161 1 -169 21 -180 20 -10 17 -15 -63 -98 -97 -98 -160
-176 -190 -235 -17 -33 -23 -70 -30 -191 -6 -121 -11 -152 -24 -160 -65 -40
-64 -38 -64 -159 l0 -112 -30 -11 -30 -11 0 -187 c0 -102 4 -195 10 -205 14
-26 63 -40 146 -40 71 0 74 -1 74 -24 0 -13 9 -54 21 -91 17 -55 31 -78 80
-128 32 -34 59 -62 59 -64 0 -2 -28 -3 -62 -3 -81 0 -234 -17 -276 -31 -121
-40 203 -72 1018 -101 460 -16 2175 -16 2595 0 773 30 1046 55 1008 93 -14 14
-106 28 -258 39 -77 5 -148 10 -158 10 -15 0 -13 6 12 37 36 46 68 125 77 191
l6 49 82 9 81 9 3 53 3 52 -55 0 -56 0 0 150 0 150 85 0 85 0 0 85 0 84 108 3
107 3 3 195 c2 107 0 485 -3 839 -7 587 -9 645 -24 660 -10 10 -62 27 -117 39
-908 195 -1145 246 -1284 277 -491 107 -636 131 -725 119z m704 -610 c12 -15
33 -66 47 -113 25 -83 63 -163 84 -176 6 -3 22 2 38 13 84 59 216 85 358 70
77 -8 187 -45 236 -79 14 -11 29 -19 32 -19 11 0 27 51 41 131 14 83 31 123
65 154 16 15 25 17 38 9 26 -17 26 -40 1 -97 -12 -29 -25 -86 -30 -128 -4 -43
-15 -91 -24 -109 -15 -29 -15 -33 0 -56 l16 -25 52 30 c57 32 68 48 93 133 22
76 37 96 61 82 26 -16 27 -50 4 -116 -11 -31 -17 -66 -14 -78 3 -11 2 -20 -3
-19 -21 4 -23 -3 -8 -26 18 -27 13 -31 -16 -15 -27 14 -33 -4 -10 -25 22 -20
27 -45 8 -45 -6 0 -23 10 -36 23 -17 14 -23 17 -20 7 3 -9 0 -24 -8 -35 -8
-10 -14 -13 -14 -7 0 7 -4 12 -10 12 -5 0 -10 -7 -10 -15 0 -8 -4 -15 -10 -15
-5 0 -10 6 -10 14 0 8 -4 18 -10 21 -18 11 2 -60 22 -77 12 -11 36 -18 58 -18
38 0 143 40 155 59 9 16 51 13 65 -4 17 -21 -1 -61 -34 -76 -17 -8 -22 -17
-18 -33 5 -19 4 -20 -13 -6 -17 14 -18 13 -11 -12 7 -32 0 -35 -26 -11 -17 15
-18 15 -12 -18 l6 -34 -26 30 -25 30 -1 -27 c0 -34 -12 -36 -33 -5 l-16 22 0
-27 c-1 -36 -18 -36 -26 0 -4 18 -12 28 -25 28 -14 0 -24 -15 -39 -57 -59
-160 -167 -218 -411 -218 -222 -1 -392 78 -480 223 -21 34 -38 52 -47 49 -7
-3 -13 1 -13 8 0 8 -10 -1 -22 -18 -28 -40 -38 -41 -38 -5 l0 27 -25 -30 -24
-30 -1 44 c0 42 -1 43 -18 28 -24 -22 -32 -21 -32 3 0 24 -4 25 -37 3 -26 -17
-26 -17 -20 8 6 22 2 27 -27 37 -45 17 -86 50 -86 69 0 25 30 53 58 53 13 0
51 -16 83 -36 63 -40 145 -66 177 -57 22 5 32 31 31 78 l0 30 -15 -27 c-19
-35 -34 -36 -34 -1 0 25 0 26 -20 8 -20 -18 -20 -17 -20 13 0 37 -10 40 -35
12 -34 -38 -43 -23 -19 34 8 20 9 20 -45 -2 -11 -4 -13 1 -8 27 6 29 5 31 -13
21 -15 -8 -20 -8 -20 3 0 7 5 18 10 23 7 7 -1 29 -25 70 -40 65 -50 96 -41
120 10 27 49 11 84 -36 70 -95 104 -130 145 -154 51 -30 87 -39 106 -27 12 7
9 16 -16 48 -45 57 -61 92 -74 169 -6 38 -22 90 -35 116 -28 56 -29 62 -8 82
19 19 42 9 73 -30z m-2472 -212 c10 -6 9 -23 -5 -78 -10 -38 -27 -105 -37
-149 -30 -136 -34 -145 -61 -145 -13 0 -24 5 -24 12 0 11 76 326 85 356 5 14
24 16 42 4z m-260 -88 c-9 -56 -79 -274 -88 -274 -11 0 -16 270 -6 293 6 12
20 17 54 17 l46 0 -6 -36z m2805 -554 c55 -53 151 -108 238 -135 37 -12 106
-20 215 -24 l160 -6 25 -52 c29 -61 71 -107 111 -123 24 -10 29 -18 29 -47 0
-29 -3 -33 -14 -24 -7 6 -21 9 -30 5 -12 -5 -13 -10 -5 -25 14 -27 -8 -25 -38
3 -22 21 -24 21 -37 3 -19 -26 -40 -13 -54 32 -7 22 -25 58 -41 81 -28 38 -32
40 -63 32 -58 -16 -199 -29 -323 -31 l-120 -2 -32 42 c-21 27 -33 36 -33 26 0
-31 32 -85 69 -118 31 -27 36 -37 31 -62 -3 -20 -8 -26 -13 -17 -5 6 -15 12
-24 12 -11 0 -14 -7 -11 -25 6 -27 -9 -35 -18 -10 -8 19 -23 19 -46 -1 -23
-21 -44 -6 -53 39 -4 18 -18 58 -32 90 -25 54 -27 57 -62 57 -72 0 -151 40
-151 76 0 11 257 254 268 254 2 0 27 -22 54 -50z m-1226 -851 c70 -43 115
-162 114 -304 0 -293 -176 -424 -281 -209 -31 62 -33 75 -37 189 -6 173 28
281 102 326 40 24 61 24 102 -2z m1953 -15 c84 -70 121 -209 101 -371 -18
-142 -83 -238 -161 -238 -172 0 -228 469 -72 605 44 39 90 40 132 4z m-1425
-76 c3 -13 7 -58 8 -100 l3 -78 -121 0 -121 0 -12 83 c-7 45 -14 90 -17 100
-5 16 6 17 125 17 127 0 131 -1 135 -22z m781 -335 c16 -92 51 -170 99 -222
l31 -34 -259 7 c-143 3 -319 6 -392 6 l-133 0 35 57 c19 31 39 83 46 115 l12
58 182 0 c180 0 183 0 211 25 24 21 38 24 95 25 l67 0 6 -37z m-2059 -50 l172
-6 5 -44 c2 -24 16 -66 30 -92 l25 -49 -262 -6 c-143 -3 -334 -7 -422 -9
l-162 -3 44 50 c31 33 50 67 62 107 l17 59 160 0 c88 0 237 -3 331 -7z m1006
-180 c8 -10 -4 -13 -55 -13 l-65 0 31 53 32 54 23 -41 c13 -23 28 -47 34 -53z"/>
<path d="M5346 3934 c-23 -22 -20 -57 7 -82 30 -28 41 -28 66 4 42 54 -25 126
-73 78z"/>
<path d="M5820 3935 c-18 -21 -15 -74 5 -94 34 -35 68 24 46 82 -12 30 -32 35
-51 12z"/>
<path d="M5390 3740 c-10 -19 -6 -23 46 -46 85 -37 179 -57 252 -51 79 6 175
51 180 85 5 34 -19 36 -79 5 -73 -38 -169 -37 -284 0 -97 32 -101 32 -115 7z"/>
<path d="M3808 2618 c-48 -36 -63 -169 -29 -245 56 -122 139 -42 129 123 -7
106 -51 159 -100 122z"/>
<path d="M5737 2600 c-61 -72 -46 -239 26 -284 23 -15 47 1 70 45 26 50 21
196 -9 236 -29 39 -56 40 -87 3z"/>
<path d="M3883 4411 c-23 -22 -46 -108 -88 -334 -34 -187 -41 -272 -25 -292
11 -14 41 -15 234 -9 204 6 222 8 239 26 15 18 17 48 17 295 0 158 -4 282 -10
292 -8 16 -27 20 -117 25 -59 4 -135 9 -168 12 -51 5 -63 3 -82 -15z"/>
<path d="M2420 3460 c-404 -10 -384 7 -385 -323 0 -207 1 -219 20 -234 17 -13
68 -14 390 -8 338 6 372 8 389 25 22 22 65 291 69 433 3 112 -3 118 -117 115
-45 -1 -209 -4 -366 -8z"/>
<path d="M4100 3443 c-36 -7 -50 -22 -50 -52 0 -44 16 -51 120 -51 81 0 100 3
113 18 20 22 22 63 5 80 -12 12 -133 15 -188 5z"/>
<path d="M3105 3298 c-17 -16 -37 -57 -60 -127 -40 -120 -40 -115 -20 -135 12
-12 40 -14 167 -9 99 3 158 10 166 18 15 14 92 227 92 256 0 18 -8 19 -159 19
-151 0 -161 -1 -186 -22z"/>
<path d="M674 1338 c-5 -7 -212 -575 -344 -943 -38 -104 -71 -198 -75 -208 -7
-16 3 -17 122 -17 l129 0 40 123 40 122 235 3 234 2 44 -125 43 -125 134 0
133 0 -23 62 c-31 83 -150 410 -289 796 l-114 313 -152 2 c-84 1 -155 -1 -157
-5z m230 -477 c42 -123 76 -225 76 -227 0 -2 -70 -4 -156 -4 l-155 0 6 23 c15
53 148 437 151 435 1 -2 36 -104 78 -227z"/>
<path d="M3388 1340 c-1 -3 -2 -267 -2 -587 l-1 -583 123 0 122 0 0 423 1 422
57 -160 c32 -88 101 -278 153 -422 l94 -263 105 0 105 0 143 403 c78 221 142
408 142 415 0 6 3 12 8 12 4 0 6 -187 4 -415 l-3 -415 126 0 125 0 0 588 0
587 -177 -2 c-142 -2 -178 -5 -185 -16 -8 -14 -248 -693 -273 -772 -8 -25 -15
-35 -19 -25 -3 8 -64 188 -137 400 -72 212 -135 391 -138 398 -6 10 -52 13
-189 15 -100 1 -183 0 -184 -3z"/>
<path d="M5969 1263 c0 -5 0 -54 1 -110 l1 -103 -75 0 -76 0 0 -85 0 -85 75 0
75 0 0 -267 c0 -158 4 -284 11 -306 14 -53 71 -112 127 -134 57 -22 198 -24
255 -5 l37 14 0 90 c0 82 -2 89 -17 83 -30 -12 -90 -18 -116 -11 -50 12 -57
51 -57 305 l0 231 95 0 95 0 0 85 0 85 -95 0 -95 0 0 110 0 110 -120 0 c-66 0
-120 -3 -121 -7z"/>
<path d="M2675 1056 c-174 -42 -294 -174 -325 -357 -30 -175 24 -342 142 -443
167 -143 458 -137 621 13 52 48 110 154 126 229 23 110 6 253 -40 344 -29 58
-110 140 -167 171 -99 54 -242 71 -357 43z m230 -211 c58 -44 78 -95 83 -210
6 -141 -19 -216 -90 -268 -37 -28 -131 -34 -180 -14 -81 34 -124 142 -116 286
9 161 86 248 211 238 42 -4 67 -12 92 -32z"/>
<path d="M5173 1055 c-144 -39 -246 -127 -292 -250 -111 -296 34 -593 313
-644 205 -38 384 33 487 192 83 128 91 346 18 489 -29 58 -110 140 -167 171
-101 55 -247 72 -359 42z m203 -194 c77 -35 114 -116 114 -251 0 -176 -68
-270 -195 -270 -135 0 -205 111 -192 307 4 67 10 92 34 135 51 90 146 121 239
79z"/>
<path d="M6795 1051 c-83 -24 -120 -45 -183 -105 -91 -86 -132 -190 -132 -336
0 -96 15 -161 54 -239 119 -234 486 -294 696 -113 187 159 199 495 24 682
-106 113 -294 159 -459 111z m211 -190 c77 -35 114 -116 114 -251 0 -176 -68
-270 -195 -270 -135 0 -203 105 -193 294 8 128 40 194 112 227 52 24 110 24
162 0z"/>
<path d="M7920 1061 c-87 -27 -150 -92 -171 -176 -4 -19 -7 6 -8 70 l-1 100
-115 -3 -115 -3 0 -440 0 -439 119 0 119 0 4 252 c3 216 6 259 21 293 38 85
103 124 205 125 l62 0 0 115 0 115 -47 -1 c-27 0 -59 -4 -73 -8z"/>
<path d="M1440 1045 c0 -2 67 -100 150 -216 l149 -212 -90 -131 c-50 -72 -119
-173 -155 -224 l-64 -92 127 0 128 1 90 134 c50 74 92 134 95 134 3 0 43 -60
90 -134 l85 -134 138 -1 c75 0 137 2 137 5 0 2 -46 71 -103 152 -57 81 -126
182 -154 223 l-50 75 139 195 c76 107 143 203 149 213 9 16 1 17 -119 17
l-130 0 -40 -62 c-23 -35 -61 -91 -85 -126 l-45 -63 -83 125 -84 125 -137 1
c-76 0 -138 -2 -138 -5z"/>
</g>
</svg>
