<?xml version="1.0" standalone="no"?>
<!DOCTYPE svg PUBLIC "-//W3C//DTD SVG 20010904//EN"
 "http://www.w3.org/TR/2001/REC-SVG-20010904/DTD/svg10.dtd">
<svg version="1.0" xmlns="http://www.w3.org/2000/svg"
 width="601.000000pt" height="622.000000pt" viewBox="0 0 601.000000 622.000000"
 preserveAspectRatio="xMidYMid meet">

<g transform="translate(0.000000,622.000000) scale(0.100000,-0.100000)"
fill="#000000" stroke="none">
<path d="M2185 6121 c-80 -49 -95 -93 -95 -278 0 -169 12 -211 72 -257 51 -38
114 -46 369 -46 l229 0 0 -122 0 -123 -362 0 c-314 0 -370 -2 -418 -17 -81
-25 -165 -89 -211 -161 -70 -109 -69 -94 -69 -739 0 -554 1 -581 20 -636 45
-127 145 -225 270 -263 63 -19 91 -19 1020 -17 l955 3 55 22 c116 48 208 145
246 260 18 54 19 95 19 638 0 574 0 581 -22 639 -45 117 -134 206 -251 249
-54 19 -79 20 -425 21 l-368 1 3 123 3 122 260 3 c257 2 261 2 305 27 32 18
51 39 72 79 27 50 28 60 28 185 0 144 -10 195 -46 244 -50 65 -5 62 -856 62
-735 0 -774 -1 -803 -19z m980 -1046 c33 -8 102 -36 154 -61 312 -153 463
-527 351 -866 -48 -144 -182 -309 -313 -387 -168 -99 -404 -125 -584 -65 -240
80 -428 287 -479 525 -24 111 -14 290 20 389 80 228 256 393 491 461 79 23
277 25 360 4z"/>
<path d="M2851 4905 c-204 -57 -359 -231 -396 -444 -55 -315 207 -621 532
-621 98 0 164 15 252 58 228 111 350 390 277 633 -50 164 -183 304 -341 360
-80 28 -247 35 -324 14z m273 -186 c73 -27 145 -93 186 -171 30 -55 35 -74 38
-153 3 -74 0 -100 -18 -147 -28 -76 -104 -159 -178 -195 -51 -25 -67 -28 -162
-28 -94 0 -110 3 -155 27 -65 34 -139 114 -173 186 -36 77 -37 188 -2 277 31
81 123 173 200 203 75 29 190 29 264 1z"/>
<path d="M2905 4554 c-43 -22 -64 -44 -86 -86 -39 -77 -17 -185 51 -241 103
-87 267 -34 306 99 14 49 14 59 0 107 -17 59 -52 98 -108 121 -48 20 -125 20
-163 0z"/>
<path d="M1655 5697 c-229 -110 -488 -292 -684 -482 -522 -508 -822 -1107
-902 -1805 -15 -137 -15 -487 0 -620 49 -422 189 -829 418 -1212 69 -116 93
-142 93 -103 0 39 24 118 45 150 l24 35 -70 130 c-233 429 -339 839 -339 1305
0 430 89 811 280 1200 141 287 327 542 566 775 210 205 439 366 662 466 65 29
98 49 99 61 4 30 -59 138 -82 140 -11 1 -60 -17 -110 -40z"/>
<path d="M4165 5670 c-19 -38 -35 -74 -35 -80 0 -6 15 -16 33 -22 64 -23 266
-129 358 -189 193 -126 396 -306 558 -494 648 -752 843 -1800 506 -2712 -20
-54 -70 -168 -111 -253 l-75 -155 3 -165 3 -165 56 85 c221 333 375 739 441
1163 29 190 32 596 5 787 -121 859 -607 1629 -1309 2076 -126 80 -349 194
-379 194 -13 0 -29 -21 -54 -70z"/>
<path d="M2905 3194 c-115 -13 -439 -46 -720 -74 -280 -28 -526 -55 -546 -61
-68 -17 -74 -33 -77 -201 l-3 -149 198 6 c625 20 981 22 1153 9 208 -17 244
-26 287 -69 l33 -33 0 -806 0 -806 -129 0 -129 0 -7 37 c-11 61 -47 145 -71
170 -22 22 -28 23 -206 23 -165 0 -186 -2 -216 -20 -44 -27 -87 -99 -108 -180
l-18 -67 -822 -7 c-453 -4 -828 -5 -834 -1 -5 3 -10 41 -10 85 0 92 11 110 69
110 21 0 43 6 49 13 7 7 12 88 14 203 l3 190 49 69 c27 39 95 116 150 171 77
77 111 104 141 113 24 6 144 11 300 12 143 0 418 4 610 7 398 8 393 7 414 84
38 142 131 547 131 570 0 18 -8 33 -25 44 -23 15 -78 16 -633 9 -664 -8 -650
-6 -694 -68 -12 -16 -32 -55 -44 -86 l-23 -56 -74 -5 c-82 -6 -103 -17 -112
-59 -3 -16 -17 -43 -31 -62 -23 -32 -24 -38 -24 -201 0 -160 1 -168 21 -179
20 -10 18 -15 -58 -93 -97 -98 -166 -182 -194 -238 -17 -34 -23 -70 -30 -192
-7 -122 -12 -153 -25 -161 -64 -39 -63 -38 -66 -161 -2 -67 -7 -114 -13 -115
-5 -1 -18 -5 -27 -10 -16 -9 -18 -29 -18 -195 0 -106 4 -193 10 -204 13 -25
70 -40 151 -40 l65 0 12 -61 c16 -85 45 -139 102 -193 28 -26 50 -49 50 -51 0
-3 -24 -5 -54 -5 -87 0 -256 -20 -290 -34 l-31 -14 27 -10 c93 -37 591 -64
1538 -83 1181 -24 2814 15 3048 73 118 29 32 50 -300 74 l-88 6 30 37 c33 41
67 128 76 195 l6 43 82 9 81 9 3 53 3 52 -55 0 -56 0 0 150 0 149 83 3 82 3 3
82 3 82 107 3 107 3 3 135 c2 74 0 451 -3 837 -6 515 -11 707 -19 719 -14 19
3 15 -696 165 -1362 294 -1234 269 -1377 268 -70 -1 -222 -12 -338 -25z m984
-580 c12 -15 33 -66 47 -113 25 -83 63 -163 84 -176 6 -3 23 3 39 14 85 61
228 89 358 71 77 -10 188 -49 235 -81 14 -11 29 -19 32 -19 11 0 27 51 41 132
21 120 71 191 110 158 20 -17 19 -39 -6 -96 -12 -27 -25 -83 -30 -125 -4 -42
-15 -91 -24 -109 -15 -29 -15 -34 0 -56 l16 -24 52 29 c57 33 68 48 93 133 22
76 37 96 61 82 26 -16 27 -50 3 -118 -14 -40 -17 -63 -10 -70 15 -15 12 -29
-4 -23 -22 9 -26 -3 -9 -29 17 -26 12 -30 -18 -14 -24 13 -27 -11 -4 -30 18
-15 20 -40 3 -40 -6 0 -23 10 -36 23 -17 14 -23 17 -20 7 3 -9 0 -24 -8 -35
-8 -10 -14 -13 -14 -7 0 7 -4 12 -10 12 -5 0 -10 -7 -10 -15 0 -8 -4 -15 -10
-15 -5 0 -10 7 -10 15 0 8 -4 15 -8 15 -18 0 2 -62 24 -77 41 -26 148 -1 220
52 19 14 23 14 45 -4 21 -16 22 -22 11 -45 -6 -14 -23 -31 -36 -38 -21 -9 -23
-14 -15 -29 11 -22 0 -25 -20 -6 -11 10 -12 7 -7 -15 7 -32 0 -35 -26 -11 -17
15 -18 15 -12 -18 l5 -34 -25 30 -26 30 0 -27 c0 -34 -13 -36 -34 -6 l-16 22
0 -27 c0 -35 -19 -35 -26 1 -10 48 -41 36 -60 -23 -40 -120 -119 -189 -242
-211 -292 -52 -542 29 -652 210 -21 34 -38 52 -47 49 -7 -3 -13 1 -13 8 0 8
-10 -1 -22 -18 -28 -40 -38 -41 -38 -5 l0 27 -25 -30 -24 -30 -1 44 c0 42 -1
43 -18 28 -24 -22 -32 -21 -32 3 0 20 -1 20 -31 4 -32 -16 -32 -16 -26 8 6 21
1 26 -27 36 -75 27 -105 72 -70 106 23 23 64 19 107 -10 62 -42 119 -64 168
-64 44 0 47 2 53 31 3 17 6 41 6 53 -1 19 -2 18 -16 -6 -19 -35 -34 -36 -34
-1 0 25 0 26 -20 8 -19 -18 -20 -17 -20 7 0 35 -9 40 -33 17 -37 -35 -45 -22
-21 35 8 20 9 20 -45 -2 -11 -4 -13 1 -8 27 6 28 5 31 -12 22 -26 -14 -34 -1
-14 21 14 16 15 20 1 36 -23 26 -68 119 -68 140 0 11 7 25 15 32 17 14 41 -8
128 -120 61 -77 160 -133 196 -110 12 7 9 14 -13 40 -42 51 -67 107 -78 179
-6 36 -21 87 -34 113 -29 56 -30 74 -7 87 21 12 44 0 72 -35z m-2466 -234 c-1
-14 -19 -97 -40 -185 -38 -156 -39 -160 -66 -163 -18 -2 -27 1 -27 11 0 19 79
347 86 359 3 5 16 8 27 6 17 -2 21 -9 20 -28z m-256 -47 c-17 -60 -80 -259
-90 -281 -10 -23 -13 -5 -17 118 -3 80 -2 153 3 163 6 13 20 17 58 17 43 0 50
-3 46 -17z m2803 -577 c113 -108 222 -146 445 -155 l160 -6 25 -52 c29 -61 58
-94 106 -119 28 -16 34 -24 34 -52 0 -28 -3 -32 -14 -23 -7 6 -21 9 -30 5 -12
-5 -13 -10 -5 -25 14 -27 -8 -25 -38 3 -22 21 -24 21 -37 3 -19 -26 -40 -13
-54 32 -7 22 -25 58 -41 81 -28 38 -32 40 -63 32 -58 -16 -199 -29 -323 -31
l-120 -2 -32 42 c-20 25 -33 36 -33 26 0 -29 39 -93 73 -120 28 -23 32 -32 29
-62 -4 -28 -6 -32 -14 -19 -15 27 -41 20 -36 -9 6 -27 -9 -35 -18 -10 -4 8
-12 15 -19 15 -7 0 -18 -7 -25 -15 -23 -28 -39 -16 -56 43 -9 31 -26 76 -37
98 -19 40 -22 42 -77 47 -96 8 -152 53 -118 94 16 20 251 233 257 233 2 0 30
-24 61 -54z m-1233 -845 c67 -42 116 -173 116 -311 -1 -284 -186 -418 -284
-206 -73 158 -52 403 42 497 45 45 77 50 126 20z m1962 -26 c129 -117 132
-443 5 -566 -27 -27 -43 -34 -74 -34 -171 0 -231 446 -80 598 51 50 94 51 149
2z m-1434 -57 c2 -7 5 -52 7 -101 l3 -87 -121 0 -121 0 -12 83 c-7 45 -14 90
-17 100 -5 16 6 17 126 17 96 0 132 -3 135 -12z m789 -378 c18 -82 44 -135 89
-186 l32 -37 -295 6 c-162 4 -339 7 -392 7 l-97 0 35 57 c19 31 39 83 46 114
l12 58 188 3 c179 3 189 4 210 26 19 18 33 22 89 22 l67 0 16 -70z m-2047 -17
l151 -6 5 -44 c2 -24 16 -66 30 -92 l25 -49 -232 -6 c-127 -3 -318 -7 -423 -9
l-193 -3 34 36 c40 41 74 102 82 147 l6 33 183 0 c100 0 250 -3 332 -7z m973
-164 l21 -29 -65 0 -66 0 30 47 c17 26 30 54 30 62 1 9 7 1 15 -17 8 -18 24
-47 35 -63z"/>
<path d="M4187 2062 c-22 -25 -21 -44 4 -76 26 -33 42 -33 68 0 43 54 -26 127
-72 76z"/>
<path d="M4660 2065 c-18 -21 -15 -74 5 -94 37 -37 72 36 40 85 -18 28 -28 30
-45 9z"/>
<path d="M4230 1870 c-12 -23 5 -34 115 -71 52 -18 92 -24 155 -24 75 0 92 4
145 30 59 29 78 56 57 77 -7 7 -29 1 -67 -17 -31 -16 -78 -30 -105 -33 -49 -4
-163 18 -227 45 -44 18 -60 16 -73 -7z"/>
<path d="M2641 739 c-62 -67 -47 -262 22 -288 55 -21 92 56 85 175 -8 113 -58
166 -107 113z"/>
<path d="M4582 737 c-58 -62 -56 -222 3 -277 53 -50 105 16 105 132 0 80 -15
133 -43 153 -29 20 -40 19 -65 -8z"/>
<path d="M2723 2538 c-26 -27 -59 -161 -99 -396 -27 -164 -30 -215 -10 -231
10 -8 74 -9 237 -4 l223 8 13 25 c16 31 19 551 3 579 -8 16 -28 20 -127 25
-65 4 -140 9 -168 12 -44 5 -53 3 -72 -18z"/>
<path d="M1269 1590 c-332 -8 -348 -12 -377 -78 -13 -30 -16 -78 -16 -250 -1
-202 0 -214 19 -228 17 -13 71 -14 385 -8 201 4 373 11 383 16 10 5 22 19 27
32 13 34 51 341 53 424 2 94 -8 103 -107 100 -39 -1 -204 -4 -367 -8z"/>
<path d="M2955 1573 c-22 -3 -45 -9 -52 -15 -16 -13 -17 -60 -1 -76 19 -19
188 -16 216 4 24 17 30 62 10 82 -12 12 -85 14 -173 5z"/>
<path d="M1947 1430 c-40 -32 -106 -244 -83 -267 12 -12 320 -3 333 10 15 15
93 232 93 259 0 17 -12 18 -159 18 -143 0 -161 -2 -184 -20z"/>
</g>
</svg>
